<?xml version="1.0" standalone="no"?>
<!DOCTYPE svg PUBLIC "-//W3C//DTD SVG 20010904//EN"
 "http://www.w3.org/TR/2001/REC-SVG-20010904/DTD/svg10.dtd">
<svg version="1.0" xmlns="http://www.w3.org/2000/svg"
 width="512.000000pt" height="512.000000pt" viewBox="0 0 512.000000 512.000000"
 preserveAspectRatio="xMidYMid meet">

<g transform="translate(0.000000,512.000000) scale(0.100000,-0.100000)"
fill="#000000" stroke="none">
<path d="M1950 4906 c-141 -30 -250 -84 -325 -162 -33 -33 -62 -50 -122 -72
-236 -84 -371 -270 -389 -542 -5 -74 20 -350 42 -447 4 -22 1 -23 -53 -23 -83
0 -129 -16 -178 -62 -60 -55 -79 -114 -73 -227 6 -105 31 -163 95 -221 60 -56
105 -75 245 -104 20 -5 33 -20 57 -72 66 -141 177 -288 304 -401 l66 -58 1
-71 0 -71 -317 -98 c-186 -57 -347 -113 -388 -134 -85 -43 -186 -141 -235
-228 -34 -60 -34 -61 -87 -66 -84 -9 -153 -65 -153 -126 0 -20 -5 -21 -92 -21
-51 0 -110 -5 -131 -11 -52 -14 -114 -72 -127 -117 -5 -21 -10 -111 -10 -202
0 -189 11 -227 76 -276 36 -28 43 -29 156 -32 l118 -4 0 -41 c1 -44 12 -110
25 -139 7 -17 -6 -18 -179 -18 -284 0 -276 10 -276 -335 0 -191 3 -242 15
-265 33 -63 -32 -60 1155 -60 1067 0 1080 0 1100 20 25 25 26 71 1 101 l-19
24 -1051 3 -1051 2 0 180 0 180 2410 0 2410 0 0 -180 0 -180 -1221 -2 -1221
-3 -19 -24 c-25 -30 -24 -72 1 -99 l21 -22 1250 0 c1373 0 1291 -4 1324 60 23
44 22 487 -1 536 -24 49 -59 64 -154 64 -68 0 -80 3 -80 16 0 9 57 292 126
628 135 655 137 672 96 752 -11 22 -35 53 -54 71 -64 62 -71 63 -457 63 l-350
0 -20 -26 c-28 -35 -26 -69 4 -99 l24 -25 336 0 336 0 24 -24 c13 -13 27 -36
31 -51 4 -18 -36 -236 -120 -649 -70 -341 -130 -629 -132 -638 -5 -17 -55 -18
-860 -18 -749 0 -854 2 -854 15 0 21 249 1233 261 1271 5 17 23 44 40 60 l30
29 304 5 c280 5 305 6 324 24 28 25 28 79 0 107 -19 19 -29 20 -337 17 l-317
-3 -54 -30 c-29 -16 -65 -45 -79 -65 -14 -19 -29 -38 -32 -42 -3 -4 -57 8
-120 28 -63 19 -159 48 -212 65 l-98 30 0 69 0 70 103 103 c110 109 226 270
267 371 23 58 27 61 101 70 62 9 159 56 202 100 64 64 81 108 85 226 4 100 2
108 -25 160 -41 77 -98 111 -196 118 l-72 4 -1 232 c0 218 -1 237 -26 328 -75
276 -270 502 -524 608 -150 62 -251 82 -439 86 -118 2 -190 -1 -235 -10z m423
-157 c190 -38 328 -110 439 -228 153 -162 218 -344 218 -612 l0 -119 -49 35
c-68 49 -143 81 -236 100 -67 13 -137 16 -420 13 -303 -2 -347 -1 -404 15
-149 42 -202 96 -236 239 -20 84 -20 276 0 353 27 104 123 176 278 210 98 21
291 19 410 -6z m-847 -397 c0 -156 2 -172 28 -246 15 -44 40 -99 57 -123 27
-41 28 -46 15 -77 -19 -46 -77 -101 -138 -132 -56 -28 -179 -77 -183 -72 -6 7
-45 349 -45 393 1 129 49 255 129 335 40 40 110 88 131 90 3 0 5 -75 6 -168z
m326 -533 c101 -32 203 -39 515 -32 255 5 307 3 360 -10 117 -30 204 -89 254
-171 17 -27 19 -51 19 -206 0 -197 -9 -250 -65 -368 -157 -333 -526 -600 -800
-578 -182 14 -357 107 -531 280 -143 144 -225 278 -265 435 -16 63 -19 105
-17 226 l3 149 115 45 c170 68 265 138 308 227 11 25 20 33 31 28 9 -4 42 -15
73 -25z m-682 -448 c0 -77 3 -147 7 -157 5 -15 2 -16 -23 -10 -45 12 -105 48
-128 79 -15 21 -22 47 -24 102 -4 68 -2 76 21 99 22 22 35 26 87 26 l60 0 0
-139z m2125 118 c26 -21 27 -24 23 -107 l-3 -84 -42 -37 c-35 -31 -110 -67
-120 -57 -2 1 0 71 4 154 l6 152 52 0 c38 0 60 -6 80 -21z m-1467 -1103 c76
-38 205 -75 290 -82 100 -8 217 14 327 62 130 58 118 63 113 -57 -3 -67 -10
-115 -20 -134 -107 -202 -605 -216 -735 -21 -32 47 -33 52 -33 152 0 57 2 104
5 104 3 0 27 -11 53 -24z m-194 -230 c66 -226 405 -349 733 -266 145 38 253
117 304 225 16 33 29 68 29 78 0 9 5 17 11 17 7 0 94 -25 195 -57 139 -42 184
-60 184 -72 -1 -9 -40 -207 -89 -441 l-87 -425 -300 -5 c-293 -5 -300 -5 -332
-28 -56 -40 -64 -70 -61 -203 l4 -119 -453 0 -453 0 8 23 c4 12 8 214 8 449
l0 427 -35 36 c-19 19 -50 40 -70 45 -19 5 -120 10 -223 10 l-188 0 12 22 c19
36 102 112 150 137 43 22 587 198 621 200 12 1 21 -14 32 -53z m-444 -840 c0
-372 -1 -384 -21 -409 -33 -42 -75 -49 -301 -45 -191 3 -209 5 -235 24 -49 36
-52 60 -52 445 -1 196 2 359 6 362 3 4 141 7 305 7 l298 0 0 -384z m-760 64
l0 -171 -97 3 -98 3 -3 154 c-2 104 1 158 9 167 8 10 37 14 100 14 l89 0 0
-170z m2450 -324 c0 -5 -27 -139 -35 -173 -5 -23 -6 -23 -201 -23 -259 0 -274
8 -274 134 l0 66 255 0 c140 0 255 -2 255 -4z"/>
<path d="M1732 3477 c-18 -19 -22 -35 -22 -84 0 -78 21 -107 75 -107 55 0 75
29 75 108 0 49 -4 67 -20 84 -28 30 -80 29 -108 -1z"/>
<path d="M2510 3480 c-16 -16 -20 -33 -20 -81 0 -70 11 -96 47 -110 35 -13 77
4 92 37 19 42 14 118 -10 148 -26 33 -79 36 -109 6z"/>
<path d="M1975 2915 c-48 -47 -25 -100 67 -150 46 -26 63 -30 133 -30 70 0 87
4 132 29 29 16 60 38 70 48 25 28 22 86 -6 109 -32 26 -59 24 -106 -8 -31 -22
-52 -28 -90 -28 -38 0 -59 6 -90 28 -49 33 -79 34 -110 2z"/>
<path d="M3969 1767 c-62 -23 -108 -57 -139 -102 -87 -127 -52 -285 79 -359
185 -103 425 69 383 274 -24 113 -111 189 -224 196 -38 3 -77 -1 -99 -9z m130
-152 c92 -47 40 -188 -70 -188 -35 0 -48 6 -71 32 -32 36 -35 70 -11 112 31
52 99 72 152 44z"/>
</g>
</svg>
